<?xml version="1.0" encoding="UTF-8" standalone="no"?>
<!-- Created with Inkscape (http://www.inkscape.org/) -->

<svg
   xmlns:dc="http://purl.org/dc/elements/1.1/"
   xmlns:cc="http://creativecommons.org/ns#"
   xmlns:rdf="http://www.w3.org/1999/02/22-rdf-syntax-ns#"
   xmlns:svg="http://www.w3.org/2000/svg"
   xmlns="http://www.w3.org/2000/svg"
   xmlns:sodipodi="http://sodipodi.sourceforge.net/DTD/sodipodi-0.dtd"
   xmlns:inkscape="http://www.inkscape.org/namespaces/inkscape"
   width="91.676895mm"
   height="100mm"
   viewBox="0 0 91.676894 100"
   version="1.1"
   id="svg8"
   inkscape:version="0.92.3 (2405546, 2018-03-11)"
   sodipodi:docname="pacman_objects_01b.svg">
  <defs
     id="defs2" />
  <sodipodi:namedview
     id="base"
     pagecolor="#ffffff"
     bordercolor="#666666"
     borderopacity="1.0"
     inkscape:pageopacity="0.0"
     inkscape:pageshadow="2"
     inkscape:zoom="1.8733478"
     inkscape:cx="209.4347"
     inkscape:cy="188.28957"
     inkscape:document-units="mm"
     inkscape:current-layer="layer1"
     showgrid="false"
     objecttolerance="1"
     fit-margin-top="0"
     fit-margin-left="0"
     fit-margin-right="0"
     fit-margin-bottom="0"
     inkscape:window-width="1197"
     inkscape:window-height="711"
     inkscape:window-x="20"
     inkscape:window-y="101"
     inkscape:window-maximized="0" />
  <metadata
     id="metadata5">
    <rdf:RDF>
      <cc:Work
         rdf:about="">
        <dc:format>image/svg+xml</dc:format>
        <dc:type
           rdf:resource="http://purl.org/dc/dcmitype/StillImage" />
        <dc:title></dc:title>
      </cc:Work>
    </rdf:RDF>
  </metadata>
  <g
     inkscape:label="Laag 1"
     inkscape:groupmode="layer"
     id="layer1"
     transform="translate(-40.936129,-22.932472)">
    <path
       inkscape:connector-curvature="0"
       style="fill:none;stroke:#fa0000;stroke-width:0.3016969;stroke-opacity:1"
       d="m 68.776136,122.52665 c -1.579379,-0.47925 -2.319529,-1.05538 -5.412916,-4.21337 -4.047189,-4.13171 -5.658119,-5.00673 -9.201765,-4.99817 -3.254963,0.008 -4.699459,0.78114 -8.025324,4.29619 -3.016646,3.18824 -4.362395,4.24802 -4.817021,3.79339 -0.219845,-0.21984 -0.280062,-9.09493 -0.195363,-28.794907 0.133138,-30.967297 0.07708,-29.894061 1.894071,-36.268615 3.912239,-13.725369 14.877138,-25.532633 28.23996,-30.409459 23.037915,-8.407797 47.879412,2.353166 57.447482,24.885377 1.64287,3.868867 2.96936,8.886259 3.42161,12.942169 0.43613,3.911231 0.452,57.430845 0.0171,57.699625 -0.48932,0.30241 -2.41732,-1.30848 -4.75941,-3.97657 -2.87149,-3.27117 -4.61401,-4.17304 -8.06292,-4.17304 -3.63277,0 -5.55632,1.04417 -9.40471,5.10517 -3.76118,3.96897 -4.67245,4.53185 -6.99563,4.3212 -2.54491,-0.23077 -3.806361,-1.03075 -6.883202,-4.36518 -3.298544,-3.57469 -5.344842,-4.83196 -8.316025,-5.10941 -3.906742,-0.36482 -6.51053,1.02865 -10.568495,5.65599 -1.369683,1.56186 -2.962449,3.07712 -3.539472,3.36726 -1.087523,0.54679 -3.445423,0.66491 -4.83798,0.24235 z"
       id="path908" />
    <path
       inkscape:connector-curvature="0"
       style="fill:none;stroke-width:0.3016969"
       d="m 78.538972,73.105067 c 2.40911,-1.127352 4.38097,-3.059679 5.548506,-5.437226 0.757083,-1.541739 0.847062,-2.045955 0.847062,-4.746589 0,-2.804737 -0.07104,-3.166025 -0.989733,-5.033758 -1.651672,-3.357853 -4.751102,-5.659777 -8.512813,-6.322388 -4.531338,-0.798177 -9.438429,1.757768 -11.768802,6.129984 -1.861882,3.493243 -1.60125,8.039774 0.654516,11.417806 3.162247,4.735503 9.081786,6.397233 14.221264,3.992171 z"
       id="path898" />
    <rect
       style="opacity:1;fill:none;fill-opacity:1;stroke:#000003;stroke-width:0.08529317;stroke-linecap:round;stroke-linejoin:bevel;stroke-miterlimit:4;stroke-dasharray:none;stroke-dashoffset:0;stroke-opacity:1"
       id="rect1090"
       width="3.7147069"
       height="2.9147067"
       x="75.256195"
       y="61.022663"
       ry="0" />
    <rect
       ry="0"
       y="61.022663"
       x="111.23954"
       height="2.9147067"
       width="3.7147069"
       id="rect1092"
       style="opacity:1;fill:none;fill-opacity:1;stroke:#000003;stroke-width:0.08529317;stroke-linecap:round;stroke-linejoin:bevel;stroke-miterlimit:4;stroke-dasharray:none;stroke-dashoffset:0;stroke-opacity:1" />
  </g>
</svg>
